<svg 
 xmlns="http://www.w3.org/2000/svg"
 xmlns:xlink="http://www.w3.org/1999/xlink"
 width="349px" height="453px">
<path fill-rule="evenodd"  fill="rgb(0, 0, 0)"
 d="M278.213,161.952 L278.213,162.227 C287.420,167.385 295.801,173.736 303.346,181.281 C313.337,191.272 321.713,202.389 328.479,214.631 C335.246,226.880 340.321,239.847 343.704,253.539 C347.087,267.238 348.779,280.530 348.779,293.414 C348.779,316.614 343.629,338.047 333.313,357.697 C323.004,377.355 309.554,394.189 292.954,408.205 C276.362,422.222 257.513,433.180 236.405,441.072 C215.304,448.971 193.796,452.913 171.880,452.913 C151.263,452.913 130.797,449.288 110.497,442.038 C90.197,434.788 71.913,424.321 55.638,410.622 C39.371,396.930 26.155,380.013 16.005,359.872 C5.855,339.738 0.780,316.780 0.780,290.997 C0.780,260.389 7.789,234.447 21.805,213.181 C35.822,191.914 53.788,176.130 75.697,165.814 L78.597,174.998 C66.030,181.764 55.397,189.581 46.697,198.439 C37.997,207.305 30.989,216.972 25.672,227.439 C20.355,237.914 16.489,248.706 14.072,259.822 C11.655,270.939 10.447,281.980 10.447,292.931 C10.447,302.034 11.146,310.759 12.531,319.110 L266.613,165.819 L2.714,7.769 L2.714,0.036 L345.879,0.036 L345.879,9.703 L23.980,9.703 L278.213,161.952 ZM24.705,356.730 C34.213,375.422 46.697,391.213 62.163,404.097 C77.630,416.988 95.113,426.738 114.605,433.338 C134.104,439.946 153.679,443.247 173.330,443.247 C195.246,443.247 216.188,439.305 236.163,431.405 C256.146,423.513 273.787,412.721 289.088,399.022 C304.396,385.330 316.562,369.297 325.579,350.930 C328.638,344.705 331.165,338.309 333.187,331.750 L15.239,331.750 C17.556,340.533 20.705,348.863 24.705,356.730 ZM23.980,321.935 L335.845,321.753 C338.019,312.011 339.113,301.922 339.113,291.481 C339.113,280.205 337.662,268.605 334.763,256.681 C331.863,244.764 327.513,233.239 321.713,222.122 C315.913,211.006 308.421,200.697 299.238,191.189 C292.152,183.858 284.047,177.346 274.947,171.641 L23.980,321.935 Z"/>
</svg>